<mxfile host="app.diagrams.net" modified="2023-04-29T17:41:11.263Z" agent="Mozilla/5.0 (Windows NT 10.0; Win64; x64) AppleWebKit/537.36 (KHTML, like Gecko) Chrome/110.0.0.0 Safari/537.36" etag="TdanzE4GwsZc8f65Ti8A" version="21.2.3" type="device">
  <diagram name="PÃ¡gina-1" id="fsConFnoxcoWJl_cFihj">
    <mxGraphModel dx="1434" dy="810" grid="1" gridSize="10" guides="1" tooltips="1" connect="1" arrows="1" fold="1" page="1" pageScale="1" pageWidth="583" pageHeight="827" math="0" shadow="0">
      <root>
        <mxCell id="0" />
        <mxCell id="1" parent="0" />
        <mxCell id="RNruc4NQ2Cj-vxa8lqnh-6" value="Aplicativo Web" style="verticalAlign=top;align=left;spacingTop=8;spacingLeft=2;spacingRight=12;shape=cube;size=10;direction=south;fontStyle=4;html=1;whiteSpace=wrap;" vertex="1" parent="1">
          <mxGeometry x="170" y="20" width="760" height="540" as="geometry" />
        </mxCell>
        <mxCell id="pl-0rzgK5KCK-Hdm5i3p-7" value="servidor web" style="verticalAlign=top;align=left;spacingTop=8;spacingLeft=2;spacingRight=12;shape=cube;size=10;direction=south;fontStyle=4;html=1;whiteSpace=wrap;" parent="1" vertex="1">
          <mxGeometry x="660" y="120" width="240" height="140" as="geometry" />
        </mxCell>
        <mxCell id="pl-0rzgK5KCK-Hdm5i3p-2" value="Frontend" style="verticalAlign=top;align=left;spacingTop=8;spacingLeft=2;spacingRight=12;shape=cube;size=10;direction=south;fontStyle=4;html=1;whiteSpace=wrap;" parent="1" vertex="1">
          <mxGeometry x="180" y="200" width="200" height="310" as="geometry" />
        </mxCell>
        <mxCell id="pl-0rzgK5KCK-Hdm5i3p-1" value="HTML" style="shape=module;align=left;spacingLeft=20;align=center;verticalAlign=top;whiteSpace=wrap;html=1;" parent="1" vertex="1">
          <mxGeometry x="230" y="240" width="100" height="50" as="geometry" />
        </mxCell>
        <mxCell id="pl-0rzgK5KCK-Hdm5i3p-3" value="CSS" style="shape=module;align=left;spacingLeft=20;align=center;verticalAlign=top;whiteSpace=wrap;html=1;" parent="1" vertex="1">
          <mxGeometry x="230" y="300" width="100" height="50" as="geometry" />
        </mxCell>
        <mxCell id="pl-0rzgK5KCK-Hdm5i3p-4" value="PHP" style="shape=module;align=left;spacingLeft=20;align=center;verticalAlign=top;whiteSpace=wrap;html=1;" parent="1" vertex="1">
          <mxGeometry x="230" y="360" width="100" height="50" as="geometry" />
        </mxCell>
        <mxCell id="pl-0rzgK5KCK-Hdm5i3p-5" value="JS" style="shape=module;align=left;spacingLeft=20;align=center;verticalAlign=top;whiteSpace=wrap;html=1;" parent="1" vertex="1">
          <mxGeometry x="230" y="420" width="100" height="50" as="geometry" />
        </mxCell>
        <mxCell id="pl-0rzgK5KCK-Hdm5i3p-6" value="apache" style="shape=module;align=left;spacingLeft=20;align=center;verticalAlign=top;whiteSpace=wrap;html=1;" parent="1" vertex="1">
          <mxGeometry x="680" y="155" width="190" height="90" as="geometry" />
        </mxCell>
        <mxCell id="pl-0rzgK5KCK-Hdm5i3p-8" value="base de datos&lt;br&gt;" style="verticalAlign=top;align=left;spacingTop=8;spacingLeft=2;spacingRight=12;shape=cube;size=10;direction=south;fontStyle=4;html=1;whiteSpace=wrap;" parent="1" vertex="1">
          <mxGeometry x="660" y="380" width="240" height="140" as="geometry" />
        </mxCell>
        <mxCell id="pl-0rzgK5KCK-Hdm5i3p-9" value="mysql" style="shape=module;align=left;spacingLeft=20;align=center;verticalAlign=top;whiteSpace=wrap;html=1;" parent="1" vertex="1">
          <mxGeometry x="695" y="420" width="150" height="90" as="geometry" />
        </mxCell>
        <mxCell id="pl-0rzgK5KCK-Hdm5i3p-13" value="conexion" style="shape=module;align=left;spacingLeft=20;align=center;verticalAlign=top;whiteSpace=wrap;html=1;" parent="1" vertex="1">
          <mxGeometry x="730" y="185" width="100" height="55" as="geometry" />
        </mxCell>
        <mxCell id="pl-0rzgK5KCK-Hdm5i3p-18" value="" style="endArrow=classic;startArrow=classic;html=1;rounded=0;entryX=0.993;entryY=0.488;entryDx=0;entryDy=0;entryPerimeter=0;exitX=0;exitY=0;exitDx=0;exitDy=115;exitPerimeter=0;" parent="1" source="pl-0rzgK5KCK-Hdm5i3p-8" target="pl-0rzgK5KCK-Hdm5i3p-7" edge="1">
          <mxGeometry width="50" height="50" relative="1" as="geometry">
            <mxPoint x="540" y="460" as="sourcePoint" />
            <mxPoint x="960" y="460" as="targetPoint" />
            <Array as="points" />
          </mxGeometry>
        </mxCell>
        <mxCell id="pl-0rzgK5KCK-Hdm5i3p-21" value="Actor" style="shape=umlActor;verticalLabelPosition=bottom;verticalAlign=top;html=1;outlineConnect=0;" parent="1" vertex="1">
          <mxGeometry x="60" y="30" width="30" height="60" as="geometry" />
        </mxCell>
        <mxCell id="pl-0rzgK5KCK-Hdm5i3p-22" value="" style="endArrow=classic;html=1;rounded=0;exitX=0.5;exitY=0.5;exitDx=0;exitDy=0;exitPerimeter=0;entryX=0;entryY=0;entryDx=0;entryDy=95;entryPerimeter=0;" parent="1" source="pl-0rzgK5KCK-Hdm5i3p-21" target="pl-0rzgK5KCK-Hdm5i3p-2" edge="1">
          <mxGeometry width="50" height="50" relative="1" as="geometry">
            <mxPoint x="390" y="190" as="sourcePoint" />
            <mxPoint x="440" y="140" as="targetPoint" />
          </mxGeometry>
        </mxCell>
        <mxCell id="-_oy-mCeSgMYkwyuEBmt-1" value="Backend" style="verticalAlign=top;align=left;spacingTop=8;spacingLeft=2;spacingRight=12;shape=cube;size=10;direction=south;fontStyle=4;html=1;whiteSpace=wrap;" parent="1" vertex="1">
          <mxGeometry x="470" y="130" width="155" height="120" as="geometry" />
        </mxCell>
        <mxCell id="-_oy-mCeSgMYkwyuEBmt-4" value="PHP" style="shape=module;align=left;spacingLeft=20;align=center;verticalAlign=top;whiteSpace=wrap;html=1;" parent="1" vertex="1">
          <mxGeometry x="485" y="175" width="100" height="50" as="geometry" />
        </mxCell>
        <mxCell id="-_oy-mCeSgMYkwyuEBmt-7" value="" style="endArrow=classic;startArrow=classic;html=1;rounded=0;exitX=0.439;exitY=0.005;exitDx=0;exitDy=0;exitPerimeter=0;entryX=1.025;entryY=0.587;entryDx=0;entryDy=0;entryPerimeter=0;" parent="1" source="pl-0rzgK5KCK-Hdm5i3p-2" target="-_oy-mCeSgMYkwyuEBmt-1" edge="1">
          <mxGeometry width="50" height="50" relative="1" as="geometry">
            <mxPoint x="506" y="334.47368421052624" as="sourcePoint" />
            <mxPoint x="577.2209302325582" y="270" as="targetPoint" />
          </mxGeometry>
        </mxCell>
        <mxCell id="-_oy-mCeSgMYkwyuEBmt-8" value="" style="endArrow=classic;startArrow=classic;html=1;rounded=0;" parent="1" edge="1">
          <mxGeometry width="50" height="50" relative="1" as="geometry">
            <mxPoint x="508" y="120" as="sourcePoint" />
            <mxPoint x="730" y="120" as="targetPoint" />
            <Array as="points">
              <mxPoint x="508" y="80" />
              <mxPoint x="610" y="80" />
              <mxPoint x="730" y="80" />
            </Array>
          </mxGeometry>
        </mxCell>
        <mxCell id="RNruc4NQ2Cj-vxa8lqnh-1" value="Ethernet" style="text;html=1;align=center;verticalAlign=middle;resizable=0;points=[];autosize=1;strokeColor=none;fillColor=none;" vertex="1" parent="1">
          <mxGeometry x="90" y="118" width="70" height="30" as="geometry" />
        </mxCell>
        <mxCell id="RNruc4NQ2Cj-vxa8lqnh-2" value="tcp/ip" style="text;html=1;align=center;verticalAlign=middle;resizable=0;points=[];autosize=1;strokeColor=none;fillColor=none;" vertex="1" parent="1">
          <mxGeometry x="454" y="290" width="50" height="30" as="geometry" />
        </mxCell>
        <mxCell id="RNruc4NQ2Cj-vxa8lqnh-3" value="tcp/ip" style="text;html=1;align=center;verticalAlign=middle;resizable=0;points=[];autosize=1;strokeColor=none;fillColor=none;" vertex="1" parent="1">
          <mxGeometry x="585" y="88" width="50" height="30" as="geometry" />
        </mxCell>
        <mxCell id="RNruc4NQ2Cj-vxa8lqnh-4" value="tcp/ip" style="text;html=1;align=center;verticalAlign=middle;resizable=0;points=[];autosize=1;strokeColor=none;fillColor=none;" vertex="1" parent="1">
          <mxGeometry x="780" y="310" width="50" height="30" as="geometry" />
        </mxCell>
      </root>
    </mxGraphModel>
  </diagram>
</mxfile>
